Patient4_TMGait_0pt4_01_left_36_EMG.mot
version=1
nRows=29
nColumns=33
inDegrees=no
endheader
time	1LAddLong	2LGlutMax	3LGlutMed	4LIliopsoas	5LSemiMemb	6LBicFemLong	7LRecFem	8LVastMed	9LVastLat	10LGasMed	11LTibAnt	12lTibPost	13LPeroneusLong	14LSol	15LExtDigLong	16LFlexDigLong	17RAddLong	18RGlutMax	19RGlutMed	20RIliopsoas	21RSemiMemb	22RBicFemLong	23RRecFem	24RVastMed	25RVastLat	26RGasMed	27RTibAnt	28RTibPost	29RPeroneusLong	30RSol	31RExtDigLong	32RFlexDigLong
46.265	0.00473	0.025635	0.009003	-0.004272	0.023956	-0.029755	0.033722	-0.005798	0.070953	-0.033112	0.00351	-0.001678	0.017242	-0.18082	0.032043	-0.011292	0.005951	-0.15961	0.24429	0.10056	0.041199	0.007172	-0.096588	0.028076	-0.10696	-0.013885	0.14282	-0.002136	-0.13153	0.030518	-0.015259	-0.00885
46.266	-0.002289	0.019379	-0.000458	0.010376	0.00473	-0.016022	0.014648	-0.004272	0.083008	-0.041351	0.006256	-0.004425	0.016022	-0.15289	0.024719	-0.004578	0.027924	-0.18341	0.87189	0.08316	0.034637	0.015869	0.027466	-0.008698	-0.10864	-0.007782	0.050201	-0.003357	-0.098267	-0.010071	-0.011902	-0.014954
46.267	0.002441	0.010834	-0.023041	0.013733	0.003357	-0.00351	0.008392	0.003052	0.080566	-0.0354	-0.00061	0.001984	0.009766	-0.18036	0.033875	-0.009308	0.022278	-0.2446	-0.26627	-0.012817	0.059967	0.010986	-0.028839	-0.04364	-0.069733	-0.009003	0.15533	0.007935	-0.07309	-0.051575	-0.017548	-0.021362
46.268	0.000916	0.026855	-0.030518	0.039063	-0.00473	-0.014038	-0.007477	-0.003052	0.096436	-0.047455	0.005341	0.009613	0.012512	-0.14267	0.024109	-0.005646	0.023041	-0.2388	-0.090027	-0.12894	0.052032	0.018616	0.05188	-0.027313	-0.005188	-0.001068	0.019073	-0.00061	0.025482	-0.090332	-0.014191	-0.015869
46.269	-0.002594	0.013885	-0.062256	0.006561	0.001373	-0.001221	0.000153	-0.004272	0.081329	-0.0383	-0.02243	0.003052	-0.005951	0.016479	0.019379	0.002289	0.015106	-0.11688	-0.3952	-0.033112	0.037231	0.041809	0.060577	0.004425	0.047913	0.004883	-0.40237	-0.004425	-0.015564	-0.015869	-0.014343	-0.007019
46.27	-0.006866	0.006561	-0.10895	0.007019	0.010071	0.028687	0.000305	-0.000763	0.049286	-0.045929	-0.020905	-0.000305	-0.019531	-0.013428	-0.02655	-0.004425	0.009308	-0.16541	-0.1796	0.11887	0.019073	0.033264	0.071869	-0.019226	-0.012665	0.000916	-0.40802	-0.001373	-0.064545	-0.007782	-0.016937	-0.011597
46.271	-0.013428	0.009308	-0.067139	-0.001526	-0.005646	0.053406	0.017395	0.001373	0.013123	-0.049896	0.038605	-0.000458	-0.009766	-0.015259	-0.054779	-0.011597	0.022888	-0.10666	0.00946	0.25864	0.019836	0.043335	0.053101	-0.084076	-0.044708	-0.007782	-0.25894	-0.001526	0.15625	-0.077515	-0.010376	-0.012817
46.272	-0.015564	0.017548	0.009308	-0.003662	-0.043335	0.091553	0.005188	0.005188	0.010376	-0.068512	0.093384	0.006409	-0.011597	0.011902	0.16388	-0.020447	0.023041	-0.081024	0.35492	0.1236	0.0354	0.041809	0.14679	-0.096893	-0.097504	0.000916	-0.12192	-0.002289	0.27527	-0.092926	-0.013885	-0.006256
46.273	-0.031281	0.02121	0.040741	-0.001678	-0.11826	0.075989	0.001526	-0.001373	0.007629	-0.063629	0.093231	0.010986	-0.026093	0.015259	0.064697	-0.022278	0.047302	-0.092316	0.12222	0.027313	0.022736	0.010986	0.2269	-0.16068	-0.14069	0.00061	0.15915	-0.000153	0.29251	-0.09079	-0.01297	-0.018005
46.274	-0.001678	0.001221	0.000916	-0.000916	-0.18051	-0.050049	-0.03891	-0.001526	0.020447	-0.04776	0.048828	0.000458	-0.029602	-0.035095	0.0354	-0.018463	0.056763	-0.19959	0.10605	0.041962	0.002441	-0.000763	0.1973	-0.1503	-0.15869	0.001221	0.46982	-0.001831	0.16052	-0.11353	-0.01358	-0.002441
46.275	0.007324	-0.063629	-0.031586	0	-0.11719	-0.097504	-0.040131	-0.007782	0.027313	-0.046082	-0.002899	0.004272	-0.026855	-0.027161	0.02182	-0.009918	0.06073	-0.17242	-0.22903	0.014191	-0.048828	0.027924	0.18723	-0.046997	-0.10803	-0.003357	0.82809	-0.00061	0.012665	-0.089722	-0.015869	-0.000916
46.276	0.014801	-0.039368	-0.009613	0	-0.011902	-0.10864	-0.042267	-0.009918	0.037231	-0.048218	-0.046387	0.007629	-0.017548	0.012054	-0.038757	-0.012512	0.04303	-0.036621	0.1178	-0.029602	0.052795	0.048523	0.076141	0.15228	0.013733	0.003662	0.29236	-0.001526	0.31067	-0.071716	-0.016479	-0.013733
46.277	0.026703	-0.037537	-0.002136	-0.004883	0.1059	-0.070648	-0.045319	-0.005951	0.018005	-0.048065	0.050964	-0.000305	-0.053558	0.03418	-0.039978	-0.010376	0.009003	-0.052643	0.16357	-0.012207	-0.044556	0.035248	-0.31998	0.10239	0.13062	-0.002747	-0.16083	-0.001068	0.22034	0.015869	-0.013428	-0.009155
46.278	0.0177	-0.058899	-0.023499	0.016785	0.11185	-0.064392	-0.05127	-0.001831	0.025177	-0.049133	0.15015	-0.004883	-0.028992	0.048981	-0.053558	-0.016632	-0.016937	-0.016327	-0.62561	0.056458	0.10452	0.009155	-0.53757	0.015869	0.19257	-0.00946	0.089264	-0.001984	-0.457	0.024414	-0.017395	-0.003815
46.279	0.011292	-0.0354	-0.059814	0.014038	0.033112	-0.05249	-0.048981	-0.009613	0.02594	-0.056152	0.17578	-0.000153	-0.0177	0.022125	-0.013275	-0.008087	0.03067	0.001526	-0.51727	0.000763	0.11566	-0.075073	-0.11078	-0.034332	0.1268	-0.006866	0.14145	-0.001831	-0.49835	-0.036316	-0.018005	-0.007782
46.28	0.011749	-0.060577	-0.050812	-0.009155	0.048676	-0.053406	-0.047455	-0.004578	0.009766	-0.060577	-0.066071	0.001526	-0.023346	0.050354	0.066681	-0.001984	0.018005	0.016785	0.32898	-0.050049	-0.002136	-0.004272	0.009003	-0.07782	0.045929	-0.004883	-0.19623	-0.000916	-0.24155	-0.008698	-0.015717	-0.006104
46.281	-0.000458	-0.059662	-0.03891	0.009308	0.040131	-0.057373	-0.042114	-0.001068	0.012207	-0.067596	-0.15305	-0.003967	0.027313	0.045013	0.07019	-0.005035	-0.015259	-0.016632	0.94101	-0.063934	-0.24063	0.065155	-0.26093	-0.099335	0.065918	0.00946	-0.25223	-0.005646	0.002899	-0.049286	-0.01236	-0.010376
46.282	0.001221	-0.11185	-0.035706	-0.023193	0.028687	-0.016632	-0.046844	-0.002747	0.018921	-0.093079	-0.1358	0.000153	0.064392	0.001373	0.075836	-0.010529	-0.016785	-0.038452	0.50537	-0.027466	0.23224	-0.005493	-0.24963	-0.036316	0.053101	-0.002747	-0.32577	-0.000916	-0.019989	-0.14587	-0.012665	-0.010376
46.283	0.000305	-0.098572	-0.077515	-0.002136	0.005493	-0.010071	-0.041656	-0.001373	0.012665	-0.050812	-0.003052	0.001526	-0.030975	-0.064087	0.018616	-0.016022	-0.007935	-0.015259	-0.098114	0.023956	0.21439	0.075989	0.040436	0.065918	-0.006866	-0.002136	-0.15549	-0.005188	-0.018311	-0.19775	-0.018311	-0.016632
46.284	-0.007935	-0.095673	-0.10773	-0.004272	0.005646	-0.04303	-0.031281	0.004272	0.014343	-0.027771	-0.010681	0.00351	-0.09079	-0.035858	0.12192	-0.012512	-0.007629	0.070038	-0.26382	0.006409	0.049133	0.17364	0.15717	0.051575	-0.005798	0.001678	0.04837	-0.005035	0.036469	-0.24368	-0.007782	-0.019989
46.285	0.002747	-0.081177	-0.16052	-0.002136	0.002136	-0.021667	-0.054474	-0.003052	0.022125	-0.032959	0.034027	0.00473	-0.066681	-0.021667	0.053558	-0.015259	-0.018768	-0.004425	-0.16617	-0.040741	-0.086365	0.1564	0.22949	-0.10971	-0.086517	-0.009613	0.18539	-0.00473	0.10468	-0.04364	-0.005493	-0.0177
46.286	0.004578	-0.082703	-0.17029	-0.000458	-0.035095	-0.019226	-0.057068	0.005035	0.019531	-0.037079	-0.02182	-0.003052	-0.018768	-0.081329	-0.075836	0.000305	-0.030212	-0.039673	-0.24353	-0.032043	-0.051727	0.10284	0.13702	-0.31799	-0.26535	-0.011902	0.57999	-0.001984	0.047607	0.27527	-0.010071	-0.004272
46.287	0.008087	-0.037842	-0.076294	0.008545	-0.028534	-0.007477	-0.048065	0.001831	0.03006	-0.022888	-0.072327	0.01236	-0.023956	0.002441	-0.2034	-0.01358	-0.023346	0.098419	-0.55267	-0.014343	0.046387	0.055084	0.007172	-0.31937	-0.18158	-0.012512	0.98221	-0.002289	0.061188	0.35751	-0.015869	-0.010681
46.288	0.013733	-0.062408	0.13626	-0.001831	-0.012817	0.001831	-0.061951	0.004578	0.027771	-0.018921	-0.02594	-0.026093	-0.026093	-0.004883	-0.21896	-0.013733	-0.033417	0.13214	0.35889	-0.049591	0.11108	0.022736	-0.16327	-0.12116	-0.040436	-0.002747	0.73547	-0.001831	0.083313	0.23453	-0.011444	-0.017395
46.289	0.006409	-0.053558	0.11307	-0.009003	0.009308	0.015717	-0.050964	0.003357	0.003052	-0.025177	-0.014038	0.007477	-0.024261	-0.011139	-0.1796	-0.012054	-0.009613	0.072479	-0.086212	-0.018005	0.10208	0.022125	-0.046387	-0.12405	-0.084686	0.000458	-0.64423	0.006256	0.077057	0.15182	-0.009003	-0.018005
46.29	0.010529	-0.13534	0.035553	-0.018768	-0.010376	0.024567	-0.049286	-0.005188	0.006561	-0.075378	-0.006256	-0.001678	-0.002594	-0.026398	-0.13229	-0.007172	0.014191	0.080109	-0.092773	-0.003204	0.10544	-0.018616	-0.001831	-0.028992	-0.099792	0.001373	-1.1258	-0.009308	0.017395	0.15289	-0.012512	-0.006409
46.291	0.007172	-0.14358	0.032349	0.014191	-0.026093	0.006866	-0.061646	0.000916	-0.006256	-0.063934	0.168	-0.006104	-0.064697	-0.075378	0.16922	-0.002441	0.019379	0.074158	0.042419	-0.011749	0.17151	-0.003662	-0.20279	0.27451	0.17777	-0.001373	-0.55893	0.00061	-0.14191	0.13748	-0.00885	-0.019226
46.292	-0.005798	-0.1564	0.070953	-0.000916	0.021057	0.019684	-0.058136	0.00473	-0.018158	-0.036926	0.059814	-0.005951	-0.050812	-0.076752	0.15808	0.000916	0.017853	0.019836	0.31143	-0.031433	0.12756	-0.019684	-0.33768	0.30762	0.093842	-0.001526	0.13016	-0.000763	-0.17364	-0.11673	-0.00946	-0.015564
46.293	-0.000916	-0.1535	0.033417	0.00946	0.010071	0.033722	-0.051727	0.007629	-0.021973	-0.038757	-0.03479	-0.000916	-0.041962	-0.087128	0.070801	-0.004578	0.024567	0.021057	0.31784	-0.045471	-0.053101	-0.002441	-0.090485	0.18173	0.052032	0.005188	0.21133	0.000153	-0.061798	-0.28	-0.000458	-0.003357
